<mxfile host="app.diagrams.net" modified="2022-12-06T18:40:54.057Z" agent="5.0 (Windows NT 10.0; Win64; x64) AppleWebKit/537.36 (KHTML, like Gecko) Chrome/107.0.0.0 Safari/537.36" version="20.6.0" etag="YbdPimTs6yAW8i8K7TMy" type="github">
  <diagram id="zsIvl_btJKAwzBX_ipea" name="Página-1">
    <mxGraphModel dx="2249" dy="794" grid="1" gridSize="10" guides="1" tooltips="1" connect="1" arrows="1" fold="1" page="1" pageScale="1" pageWidth="827" pageHeight="1169" math="0" shadow="0">
      <root>
        <mxCell id="0" />
        <mxCell id="1" parent="0" />
        <mxCell id="BaXSai-w9nqZ_IfBJfG6-1" value="empleado" style="rounded=0;whiteSpace=wrap;html=1;" vertex="1" parent="1">
          <mxGeometry x="720" y="130" width="120" height="60" as="geometry" />
        </mxCell>
        <mxCell id="BaXSai-w9nqZ_IfBJfG6-2" value="editorial" style="rounded=0;whiteSpace=wrap;html=1;" vertex="1" parent="1">
          <mxGeometry x="400" y="130" width="120" height="60" as="geometry" />
        </mxCell>
        <mxCell id="BaXSai-w9nqZ_IfBJfG6-3" value="revistas" style="rounded=0;whiteSpace=wrap;html=1;" vertex="1" parent="1">
          <mxGeometry x="30" y="130" width="120" height="60" as="geometry" />
        </mxCell>
        <mxCell id="BaXSai-w9nqZ_IfBJfG6-4" value="periodistas" style="rounded=0;whiteSpace=wrap;html=1;" vertex="1" parent="1">
          <mxGeometry x="30" y="410" width="120" height="60" as="geometry" />
        </mxCell>
        <mxCell id="BaXSai-w9nqZ_IfBJfG6-5" value="1:N" style="text;html=1;align=center;verticalAlign=middle;resizable=0;points=[];autosize=1;strokeColor=none;fillColor=none;" vertex="1" parent="1">
          <mxGeometry x="600" y="100" width="40" height="30" as="geometry" />
        </mxCell>
        <mxCell id="BaXSai-w9nqZ_IfBJfG6-6" value="trabajan" style="rhombus;whiteSpace=wrap;html=1;" vertex="1" parent="1">
          <mxGeometry x="580" y="120" width="80" height="80" as="geometry" />
        </mxCell>
        <mxCell id="BaXSai-w9nqZ_IfBJfG6-7" value="imprimen" style="rhombus;whiteSpace=wrap;html=1;" vertex="1" parent="1">
          <mxGeometry x="230" y="120" width="80" height="80" as="geometry" />
        </mxCell>
        <mxCell id="BaXSai-w9nqZ_IfBJfG6-8" value="escriben" style="rhombus;whiteSpace=wrap;html=1;" vertex="1" parent="1">
          <mxGeometry x="50" y="260" width="80" height="80" as="geometry" />
        </mxCell>
        <mxCell id="BaXSai-w9nqZ_IfBJfG6-10" value="N:M" style="text;html=1;align=center;verticalAlign=middle;resizable=0;points=[];autosize=1;strokeColor=none;fillColor=none;" vertex="1" parent="1">
          <mxGeometry x="245" y="100" width="50" height="30" as="geometry" />
        </mxCell>
        <mxCell id="BaXSai-w9nqZ_IfBJfG6-11" value="N:M" style="text;html=1;align=center;verticalAlign=middle;resizable=0;points=[];autosize=1;strokeColor=none;fillColor=none;" vertex="1" parent="1">
          <mxGeometry x="120" y="285" width="50" height="30" as="geometry" />
        </mxCell>
        <mxCell id="BaXSai-w9nqZ_IfBJfG6-13" value="" style="endArrow=none;html=1;rounded=0;entryX=0;entryY=0.5;entryDx=0;entryDy=0;exitX=1;exitY=0.5;exitDx=0;exitDy=0;" edge="1" parent="1" source="BaXSai-w9nqZ_IfBJfG6-6" target="BaXSai-w9nqZ_IfBJfG6-1">
          <mxGeometry width="50" height="50" relative="1" as="geometry">
            <mxPoint x="490" y="240" as="sourcePoint" />
            <mxPoint x="540" y="190" as="targetPoint" />
          </mxGeometry>
        </mxCell>
        <mxCell id="BaXSai-w9nqZ_IfBJfG6-14" value="" style="endArrow=none;html=1;rounded=0;entryX=0;entryY=0.5;entryDx=0;entryDy=0;exitX=1;exitY=0.5;exitDx=0;exitDy=0;" edge="1" parent="1" source="BaXSai-w9nqZ_IfBJfG6-2" target="BaXSai-w9nqZ_IfBJfG6-6">
          <mxGeometry width="50" height="50" relative="1" as="geometry">
            <mxPoint x="490" y="240" as="sourcePoint" />
            <mxPoint x="540" y="190" as="targetPoint" />
          </mxGeometry>
        </mxCell>
        <mxCell id="BaXSai-w9nqZ_IfBJfG6-18" value="" style="endArrow=none;html=1;rounded=0;entryX=0;entryY=0.5;entryDx=0;entryDy=0;exitX=1;exitY=0.5;exitDx=0;exitDy=0;" edge="1" parent="1" source="BaXSai-w9nqZ_IfBJfG6-7" target="BaXSai-w9nqZ_IfBJfG6-2">
          <mxGeometry width="50" height="50" relative="1" as="geometry">
            <mxPoint x="490" y="240" as="sourcePoint" />
            <mxPoint x="540" y="190" as="targetPoint" />
          </mxGeometry>
        </mxCell>
        <mxCell id="BaXSai-w9nqZ_IfBJfG6-19" value="" style="endArrow=none;html=1;rounded=0;entryX=0;entryY=0.5;entryDx=0;entryDy=0;exitX=1;exitY=0.5;exitDx=0;exitDy=0;" edge="1" parent="1" source="BaXSai-w9nqZ_IfBJfG6-3" target="BaXSai-w9nqZ_IfBJfG6-7">
          <mxGeometry width="50" height="50" relative="1" as="geometry">
            <mxPoint x="490" y="240" as="sourcePoint" />
            <mxPoint x="540" y="190" as="targetPoint" />
          </mxGeometry>
        </mxCell>
        <mxCell id="BaXSai-w9nqZ_IfBJfG6-20" value="" style="endArrow=none;html=1;rounded=0;exitX=0.5;exitY=0;exitDx=0;exitDy=0;entryX=0.5;entryY=1;entryDx=0;entryDy=0;" edge="1" parent="1" source="BaXSai-w9nqZ_IfBJfG6-8" target="BaXSai-w9nqZ_IfBJfG6-3">
          <mxGeometry width="50" height="50" relative="1" as="geometry">
            <mxPoint x="490" y="240" as="sourcePoint" />
            <mxPoint x="540" y="190" as="targetPoint" />
          </mxGeometry>
        </mxCell>
        <mxCell id="BaXSai-w9nqZ_IfBJfG6-21" value="" style="endArrow=none;html=1;rounded=0;entryX=0.5;entryY=0;entryDx=0;entryDy=0;exitX=0.5;exitY=1;exitDx=0;exitDy=0;" edge="1" parent="1" source="BaXSai-w9nqZ_IfBJfG6-8" target="BaXSai-w9nqZ_IfBJfG6-4">
          <mxGeometry width="50" height="50" relative="1" as="geometry">
            <mxPoint x="490" y="240" as="sourcePoint" />
            <mxPoint x="540" y="190" as="targetPoint" />
          </mxGeometry>
        </mxCell>
        <mxCell id="BaXSai-w9nqZ_IfBJfG6-22" value="sucursal" style="text;html=1;strokeColor=none;fillColor=none;align=center;verticalAlign=middle;whiteSpace=wrap;rounded=0;" vertex="1" parent="1">
          <mxGeometry x="380" y="30" width="60" height="30" as="geometry" />
        </mxCell>
        <mxCell id="BaXSai-w9nqZ_IfBJfG6-23" value="domicilio" style="text;html=1;strokeColor=none;fillColor=none;align=center;verticalAlign=middle;whiteSpace=wrap;rounded=0;" vertex="1" parent="1">
          <mxGeometry x="460" y="30" width="60" height="30" as="geometry" />
        </mxCell>
        <mxCell id="BaXSai-w9nqZ_IfBJfG6-24" value="teléfono" style="text;html=1;strokeColor=none;fillColor=none;align=center;verticalAlign=middle;whiteSpace=wrap;rounded=0;" vertex="1" parent="1">
          <mxGeometry x="380" y="230" width="60" height="30" as="geometry" />
        </mxCell>
        <mxCell id="BaXSai-w9nqZ_IfBJfG6-25" value="código_sucursal" style="text;html=1;strokeColor=none;fillColor=none;align=center;verticalAlign=middle;whiteSpace=wrap;rounded=0;" vertex="1" parent="1">
          <mxGeometry x="470" y="230" width="60" height="30" as="geometry" />
        </mxCell>
        <mxCell id="BaXSai-w9nqZ_IfBJfG6-26" value="nombre_empleado" style="text;html=1;align=center;verticalAlign=middle;resizable=0;points=[];autosize=1;strokeColor=none;fillColor=none;" vertex="1" parent="1">
          <mxGeometry x="680" y="35" width="120" height="30" as="geometry" />
        </mxCell>
        <mxCell id="BaXSai-w9nqZ_IfBJfG6-27" value="apellidos_empleado" style="text;html=1;align=center;verticalAlign=middle;resizable=0;points=[];autosize=1;strokeColor=none;fillColor=none;" vertex="1" parent="1">
          <mxGeometry x="795" y="35" width="130" height="30" as="geometry" />
        </mxCell>
        <mxCell id="BaXSai-w9nqZ_IfBJfG6-28" value="NIF_empleado" style="text;html=1;align=center;verticalAlign=middle;resizable=0;points=[];autosize=1;strokeColor=none;fillColor=none;" vertex="1" parent="1">
          <mxGeometry x="690" y="212.5" width="100" height="30" as="geometry" />
        </mxCell>
        <mxCell id="BaXSai-w9nqZ_IfBJfG6-29" value="teléfono_empleado" style="text;html=1;align=center;verticalAlign=middle;resizable=0;points=[];autosize=1;strokeColor=none;fillColor=none;" vertex="1" parent="1">
          <mxGeometry x="800" y="212.5" width="130" height="30" as="geometry" />
        </mxCell>
        <mxCell id="BaXSai-w9nqZ_IfBJfG6-30" value="título" style="text;html=1;align=center;verticalAlign=middle;resizable=0;points=[];autosize=1;strokeColor=none;fillColor=none;" vertex="1" parent="1">
          <mxGeometry x="15" y="15" width="50" height="30" as="geometry" />
        </mxCell>
        <mxCell id="BaXSai-w9nqZ_IfBJfG6-31" value="número&lt;br&gt;registro" style="text;html=1;align=center;verticalAlign=middle;resizable=0;points=[];autosize=1;strokeColor=none;fillColor=none;" vertex="1" parent="1">
          <mxGeometry x="100" y="10" width="60" height="40" as="geometry" />
        </mxCell>
        <mxCell id="BaXSai-w9nqZ_IfBJfG6-32" value="periodicidad" style="text;html=1;align=center;verticalAlign=middle;resizable=0;points=[];autosize=1;strokeColor=none;fillColor=none;" vertex="1" parent="1">
          <mxGeometry x="-105" y="89" width="90" height="30" as="geometry" />
        </mxCell>
        <mxCell id="BaXSai-w9nqZ_IfBJfG6-33" value="tipo" style="text;html=1;align=center;verticalAlign=middle;resizable=0;points=[];autosize=1;strokeColor=none;fillColor=none;" vertex="1" parent="1">
          <mxGeometry x="-80" y="165" width="40" height="30" as="geometry" />
        </mxCell>
        <mxCell id="BaXSai-w9nqZ_IfBJfG6-34" value="nombre_periodista" style="text;html=1;align=center;verticalAlign=middle;resizable=0;points=[];autosize=1;strokeColor=none;fillColor=none;" vertex="1" parent="1">
          <mxGeometry x="-120" y="400" width="120" height="30" as="geometry" />
        </mxCell>
        <mxCell id="BaXSai-w9nqZ_IfBJfG6-35" value="apellidos_periodista" style="text;html=1;align=center;verticalAlign=middle;resizable=0;points=[];autosize=1;strokeColor=none;fillColor=none;" vertex="1" parent="1">
          <mxGeometry x="-125" y="510" width="130" height="30" as="geometry" />
        </mxCell>
        <mxCell id="BaXSai-w9nqZ_IfBJfG6-36" value="NIF_periodista" style="text;html=1;align=center;verticalAlign=middle;resizable=0;points=[];autosize=1;strokeColor=none;fillColor=none;" vertex="1" parent="1">
          <mxGeometry x="40" y="510" width="100" height="30" as="geometry" />
        </mxCell>
        <mxCell id="BaXSai-w9nqZ_IfBJfG6-37" value="teléfono_periodista" style="text;html=1;align=center;verticalAlign=middle;resizable=0;points=[];autosize=1;strokeColor=none;fillColor=none;" vertex="1" parent="1">
          <mxGeometry x="190" y="510" width="120" height="30" as="geometry" />
        </mxCell>
        <mxCell id="BaXSai-w9nqZ_IfBJfG6-38" value="especialidad_periodista" style="text;html=1;align=center;verticalAlign=middle;resizable=0;points=[];autosize=1;strokeColor=none;fillColor=none;" vertex="1" parent="1">
          <mxGeometry x="175" y="410" width="150" height="30" as="geometry" />
        </mxCell>
        <mxCell id="BaXSai-w9nqZ_IfBJfG6-58" value="" style="group" vertex="1" connectable="0" parent="1">
          <mxGeometry x="720" y="245" width="40" height="40" as="geometry" />
        </mxCell>
        <mxCell id="BaXSai-w9nqZ_IfBJfG6-47" value="" style="shape=or;whiteSpace=wrap;html=1;fillColor=#000000;gradientColor=none;gradientDirection=east;" vertex="1" parent="BaXSai-w9nqZ_IfBJfG6-58">
          <mxGeometry x="20" width="20" height="40" as="geometry" />
        </mxCell>
        <mxCell id="BaXSai-w9nqZ_IfBJfG6-48" value="" style="shape=or;whiteSpace=wrap;html=1;fillColor=#000000;gradientColor=none;gradientDirection=east;rotation=-180;" vertex="1" parent="BaXSai-w9nqZ_IfBJfG6-58">
          <mxGeometry width="20" height="40" as="geometry" />
        </mxCell>
        <mxCell id="BaXSai-w9nqZ_IfBJfG6-67" value="" style="group" vertex="1" connectable="0" parent="1">
          <mxGeometry x="480" y="260" width="40" height="40" as="geometry" />
        </mxCell>
        <mxCell id="BaXSai-w9nqZ_IfBJfG6-68" value="" style="shape=or;whiteSpace=wrap;html=1;fillColor=#000000;gradientColor=none;gradientDirection=east;" vertex="1" parent="BaXSai-w9nqZ_IfBJfG6-67">
          <mxGeometry x="20" width="20" height="40" as="geometry" />
        </mxCell>
        <mxCell id="BaXSai-w9nqZ_IfBJfG6-69" value="" style="shape=or;whiteSpace=wrap;html=1;fillColor=#000000;gradientColor=none;gradientDirection=east;rotation=-180;" vertex="1" parent="BaXSai-w9nqZ_IfBJfG6-67">
          <mxGeometry width="20" height="40" as="geometry" />
        </mxCell>
        <mxCell id="BaXSai-w9nqZ_IfBJfG6-85" value="" style="group" vertex="1" connectable="0" parent="1">
          <mxGeometry x="110" y="47" width="40" height="40" as="geometry" />
        </mxCell>
        <mxCell id="BaXSai-w9nqZ_IfBJfG6-86" value="" style="shape=or;whiteSpace=wrap;html=1;fillColor=#000000;gradientColor=none;gradientDirection=east;" vertex="1" parent="BaXSai-w9nqZ_IfBJfG6-85">
          <mxGeometry x="20" width="20" height="40" as="geometry" />
        </mxCell>
        <mxCell id="BaXSai-w9nqZ_IfBJfG6-87" value="" style="shape=or;whiteSpace=wrap;html=1;fillColor=#000000;gradientColor=none;gradientDirection=east;rotation=-180;" vertex="1" parent="BaXSai-w9nqZ_IfBJfG6-85">
          <mxGeometry width="20" height="40" as="geometry" />
        </mxCell>
        <mxCell id="BaXSai-w9nqZ_IfBJfG6-97" value="" style="ellipse;whiteSpace=wrap;html=1;aspect=fixed;fillColor=#FFFFFF;gradientColor=none;gradientDirection=east;" vertex="1" parent="1">
          <mxGeometry x="720" y="65" width="40" height="40" as="geometry" />
        </mxCell>
        <mxCell id="BaXSai-w9nqZ_IfBJfG6-98" value="" style="ellipse;whiteSpace=wrap;html=1;aspect=fixed;fillColor=#FFFFFF;gradientColor=none;gradientDirection=east;" vertex="1" parent="1">
          <mxGeometry x="840" y="65" width="40" height="40" as="geometry" />
        </mxCell>
        <mxCell id="BaXSai-w9nqZ_IfBJfG6-99" value="" style="ellipse;whiteSpace=wrap;html=1;aspect=fixed;fillColor=#FFFFFF;gradientColor=none;gradientDirection=east;" vertex="1" parent="1">
          <mxGeometry x="845" y="245" width="40" height="40" as="geometry" />
        </mxCell>
        <mxCell id="BaXSai-w9nqZ_IfBJfG6-100" value="" style="group" vertex="1" connectable="0" parent="1">
          <mxGeometry x="930" y="150" width="40" height="40" as="geometry" />
        </mxCell>
        <mxCell id="BaXSai-w9nqZ_IfBJfG6-101" value="" style="shape=or;whiteSpace=wrap;html=1;fillColor=default;gradientColor=none;gradientDirection=east;" vertex="1" parent="BaXSai-w9nqZ_IfBJfG6-100">
          <mxGeometry x="20" width="20" height="40" as="geometry" />
        </mxCell>
        <mxCell id="BaXSai-w9nqZ_IfBJfG6-102" value="" style="shape=or;whiteSpace=wrap;html=1;fillColor=#000000;gradientColor=none;gradientDirection=east;rotation=-180;" vertex="1" parent="BaXSai-w9nqZ_IfBJfG6-100">
          <mxGeometry width="20" height="40" as="geometry" />
        </mxCell>
        <mxCell id="BaXSai-w9nqZ_IfBJfG6-103" value="código_sucursal1" style="text;html=1;strokeColor=none;fillColor=none;align=center;verticalAlign=middle;whiteSpace=wrap;rounded=0;" vertex="1" parent="1">
          <mxGeometry x="925" y="120" width="60" height="30" as="geometry" />
        </mxCell>
        <mxCell id="BaXSai-w9nqZ_IfBJfG6-104" value="" style="ellipse;whiteSpace=wrap;html=1;aspect=fixed;fillColor=#FFFFFF;gradientColor=none;gradientDirection=east;" vertex="1" parent="1">
          <mxGeometry x="390" y="59" width="40" height="40" as="geometry" />
        </mxCell>
        <mxCell id="BaXSai-w9nqZ_IfBJfG6-105" value="" style="ellipse;whiteSpace=wrap;html=1;aspect=fixed;fillColor=#FFFFFF;gradientColor=none;gradientDirection=east;" vertex="1" parent="1">
          <mxGeometry x="470" y="60" width="40" height="40" as="geometry" />
        </mxCell>
        <mxCell id="BaXSai-w9nqZ_IfBJfG6-106" value="" style="ellipse;whiteSpace=wrap;html=1;aspect=fixed;fillColor=#FFFFFF;gradientColor=none;gradientDirection=east;" vertex="1" parent="1">
          <mxGeometry x="390" y="260" width="40" height="40" as="geometry" />
        </mxCell>
        <mxCell id="BaXSai-w9nqZ_IfBJfG6-107" value="" style="ellipse;whiteSpace=wrap;html=1;aspect=fixed;fillColor=#FFFFFF;gradientColor=none;gradientDirection=east;" vertex="1" parent="1">
          <mxGeometry x="20" y="47" width="40" height="40" as="geometry" />
        </mxCell>
        <mxCell id="BaXSai-w9nqZ_IfBJfG6-108" value="" style="ellipse;whiteSpace=wrap;html=1;aspect=fixed;fillColor=#FFFFFF;gradientColor=none;gradientDirection=east;" vertex="1" parent="1">
          <mxGeometry x="-80" y="110" width="40" height="40" as="geometry" />
        </mxCell>
        <mxCell id="BaXSai-w9nqZ_IfBJfG6-109" value="" style="ellipse;whiteSpace=wrap;html=1;aspect=fixed;fillColor=#FFFFFF;gradientColor=none;gradientDirection=east;" vertex="1" parent="1">
          <mxGeometry x="-80" y="190" width="40" height="40" as="geometry" />
        </mxCell>
        <mxCell id="BaXSai-w9nqZ_IfBJfG6-114" value="" style="group" vertex="1" connectable="0" parent="1">
          <mxGeometry x="210" y="225" width="70" height="40" as="geometry" />
        </mxCell>
        <mxCell id="BaXSai-w9nqZ_IfBJfG6-115" value="" style="shape=or;whiteSpace=wrap;html=1;fillColor=default;gradientColor=none;gradientDirection=east;" vertex="1" parent="BaXSai-w9nqZ_IfBJfG6-114">
          <mxGeometry x="20" y="17.5" width="20" height="40" as="geometry" />
        </mxCell>
        <mxCell id="BaXSai-w9nqZ_IfBJfG6-116" value="" style="shape=or;whiteSpace=wrap;html=1;fillColor=#000000;gradientColor=none;gradientDirection=east;rotation=-180;" vertex="1" parent="BaXSai-w9nqZ_IfBJfG6-114">
          <mxGeometry y="17.5" width="20" height="40" as="geometry" />
        </mxCell>
        <mxCell id="BaXSai-w9nqZ_IfBJfG6-117" value="" style="group" vertex="1" connectable="0" parent="1">
          <mxGeometry x="285" y="242.5" width="40" height="40" as="geometry" />
        </mxCell>
        <mxCell id="BaXSai-w9nqZ_IfBJfG6-118" value="" style="shape=or;whiteSpace=wrap;html=1;fillColor=default;gradientColor=none;gradientDirection=east;" vertex="1" parent="BaXSai-w9nqZ_IfBJfG6-117">
          <mxGeometry x="20" width="20" height="40" as="geometry" />
        </mxCell>
        <mxCell id="BaXSai-w9nqZ_IfBJfG6-119" value="" style="shape=or;whiteSpace=wrap;html=1;fillColor=#000000;gradientColor=none;gradientDirection=east;rotation=-180;" vertex="1" parent="BaXSai-w9nqZ_IfBJfG6-117">
          <mxGeometry width="20" height="40" as="geometry" />
        </mxCell>
        <mxCell id="BaXSai-w9nqZ_IfBJfG6-120" value="código_sucursal2" style="text;html=1;strokeColor=none;fillColor=none;align=center;verticalAlign=middle;whiteSpace=wrap;rounded=0;" vertex="1" parent="1">
          <mxGeometry x="285" y="212.5" width="60" height="30" as="geometry" />
        </mxCell>
        <mxCell id="BaXSai-w9nqZ_IfBJfG6-123" value="" style="ellipse;whiteSpace=wrap;html=1;aspect=fixed;fillColor=#FFFFFF;gradientColor=none;gradientDirection=east;" vertex="1" parent="1">
          <mxGeometry x="-80" y="425" width="40" height="40" as="geometry" />
        </mxCell>
        <mxCell id="BaXSai-w9nqZ_IfBJfG6-124" value="" style="ellipse;whiteSpace=wrap;html=1;aspect=fixed;fillColor=#FFFFFF;gradientColor=none;gradientDirection=east;" vertex="1" parent="1">
          <mxGeometry x="-80" y="545" width="40" height="40" as="geometry" />
        </mxCell>
        <mxCell id="BaXSai-w9nqZ_IfBJfG6-125" value="" style="ellipse;whiteSpace=wrap;html=1;aspect=fixed;fillColor=#FFFFFF;gradientColor=none;gradientDirection=east;" vertex="1" parent="1">
          <mxGeometry x="230" y="545" width="40" height="40" as="geometry" />
        </mxCell>
        <mxCell id="BaXSai-w9nqZ_IfBJfG6-126" value="" style="ellipse;whiteSpace=wrap;html=1;aspect=fixed;fillColor=#FFFFFF;gradientColor=none;gradientDirection=east;" vertex="1" parent="1">
          <mxGeometry x="230" y="440" width="40" height="40" as="geometry" />
        </mxCell>
        <mxCell id="BaXSai-w9nqZ_IfBJfG6-132" value="" style="group" vertex="1" connectable="0" parent="1">
          <mxGeometry x="70" y="545" width="40" height="40" as="geometry" />
        </mxCell>
        <mxCell id="BaXSai-w9nqZ_IfBJfG6-133" value="" style="shape=or;whiteSpace=wrap;html=1;fillColor=#000000;gradientColor=none;gradientDirection=east;" vertex="1" parent="BaXSai-w9nqZ_IfBJfG6-132">
          <mxGeometry x="20" width="20" height="40" as="geometry" />
        </mxCell>
        <mxCell id="BaXSai-w9nqZ_IfBJfG6-134" value="" style="shape=or;whiteSpace=wrap;html=1;fillColor=#000000;gradientColor=none;gradientDirection=east;rotation=-180;" vertex="1" parent="BaXSai-w9nqZ_IfBJfG6-132">
          <mxGeometry width="20" height="40" as="geometry" />
        </mxCell>
        <mxCell id="BaXSai-w9nqZ_IfBJfG6-135" value="número_registro2" style="text;html=1;align=center;verticalAlign=middle;resizable=0;points=[];autosize=1;strokeColor=none;fillColor=none;" vertex="1" parent="1">
          <mxGeometry x="-120" y="260" width="120" height="30" as="geometry" />
        </mxCell>
        <mxCell id="BaXSai-w9nqZ_IfBJfG6-141" value="NIF_periodista1" style="text;html=1;align=center;verticalAlign=middle;resizable=0;points=[];autosize=1;strokeColor=none;fillColor=none;" vertex="1" parent="1">
          <mxGeometry x="-115" y="320" width="110" height="30" as="geometry" />
        </mxCell>
        <mxCell id="BaXSai-w9nqZ_IfBJfG6-137" value="" style="shape=or;whiteSpace=wrap;html=1;fillColor=default;gradientColor=none;gradientDirection=east;" vertex="1" parent="1">
          <mxGeometry x="-60" y="285" width="20" height="40" as="geometry" />
        </mxCell>
        <mxCell id="BaXSai-w9nqZ_IfBJfG6-138" value="" style="shape=or;whiteSpace=wrap;html=1;fillColor=#000000;gradientColor=none;gradientDirection=east;rotation=-180;" vertex="1" parent="1">
          <mxGeometry x="-80" y="285" width="20" height="40" as="geometry" />
        </mxCell>
        <mxCell id="BaXSai-w9nqZ_IfBJfG6-143" value="" style="shape=or;whiteSpace=wrap;html=1;fillColor=default;gradientColor=none;gradientDirection=east;" vertex="1" parent="1">
          <mxGeometry x="-60" y="345" width="20" height="40" as="geometry" />
        </mxCell>
        <mxCell id="BaXSai-w9nqZ_IfBJfG6-144" value="" style="shape=or;whiteSpace=wrap;html=1;fillColor=#000000;gradientColor=none;gradientDirection=east;rotation=-180;" vertex="1" parent="1">
          <mxGeometry x="-80" y="345" width="20" height="40" as="geometry" />
        </mxCell>
        <mxCell id="BaXSai-w9nqZ_IfBJfG6-110" value="número_registro1" style="text;html=1;align=center;verticalAlign=middle;resizable=0;points=[];autosize=1;strokeColor=none;fillColor=none;" vertex="1" parent="1">
          <mxGeometry x="155" y="212.5" width="120" height="30" as="geometry" />
        </mxCell>
        <mxCell id="BaXSai-w9nqZ_IfBJfG6-151" value="" style="endArrow=none;html=1;rounded=0;entryX=0.5;entryY=1;entryDx=0;entryDy=0;exitX=0.185;exitY=0.002;exitDx=0;exitDy=0;exitPerimeter=0;" edge="1" parent="1" source="BaXSai-w9nqZ_IfBJfG6-2" target="BaXSai-w9nqZ_IfBJfG6-104">
          <mxGeometry width="50" height="50" relative="1" as="geometry">
            <mxPoint x="420" y="160" as="sourcePoint" />
            <mxPoint x="470" y="110" as="targetPoint" />
          </mxGeometry>
        </mxCell>
        <mxCell id="BaXSai-w9nqZ_IfBJfG6-152" value="" style="endArrow=none;html=1;rounded=0;entryX=0.5;entryY=1;entryDx=0;entryDy=0;exitX=0.657;exitY=-0.046;exitDx=0;exitDy=0;exitPerimeter=0;" edge="1" parent="1" source="BaXSai-w9nqZ_IfBJfG6-2" target="BaXSai-w9nqZ_IfBJfG6-105">
          <mxGeometry width="50" height="50" relative="1" as="geometry">
            <mxPoint x="432.1999999999998" y="140.11999999999995" as="sourcePoint" />
            <mxPoint x="420" y="109" as="targetPoint" />
          </mxGeometry>
        </mxCell>
        <mxCell id="BaXSai-w9nqZ_IfBJfG6-153" value="" style="endArrow=none;html=1;rounded=0;entryX=0.75;entryY=1;entryDx=0;entryDy=0;exitX=0.5;exitY=0;exitDx=0;exitDy=0;" edge="1" parent="1" source="BaXSai-w9nqZ_IfBJfG6-25" target="BaXSai-w9nqZ_IfBJfG6-2">
          <mxGeometry width="50" height="50" relative="1" as="geometry">
            <mxPoint x="488.8399999999999" y="137.23999999999995" as="sourcePoint" />
            <mxPoint x="500.0000000000002" y="110" as="targetPoint" />
          </mxGeometry>
        </mxCell>
        <mxCell id="BaXSai-w9nqZ_IfBJfG6-154" value="" style="endArrow=none;html=1;rounded=0;entryX=0.348;entryY=1.01;entryDx=0;entryDy=0;entryPerimeter=0;" edge="1" parent="1" source="BaXSai-w9nqZ_IfBJfG6-24" target="BaXSai-w9nqZ_IfBJfG6-2">
          <mxGeometry width="50" height="50" relative="1" as="geometry">
            <mxPoint x="510.0000000000002" y="240" as="sourcePoint" />
            <mxPoint x="499.9999999999998" y="200" as="targetPoint" />
          </mxGeometry>
        </mxCell>
        <mxCell id="BaXSai-w9nqZ_IfBJfG6-155" value="" style="endArrow=none;html=1;rounded=0;entryX=0.25;entryY=0;entryDx=0;entryDy=0;exitX=0.5;exitY=1;exitDx=0;exitDy=0;" edge="1" parent="1" source="BaXSai-w9nqZ_IfBJfG6-97" target="BaXSai-w9nqZ_IfBJfG6-1">
          <mxGeometry width="50" height="50" relative="1" as="geometry">
            <mxPoint x="740" y="220" as="sourcePoint" />
            <mxPoint x="790" y="170" as="targetPoint" />
          </mxGeometry>
        </mxCell>
        <mxCell id="BaXSai-w9nqZ_IfBJfG6-156" value="" style="endArrow=none;html=1;rounded=0;entryX=0.75;entryY=0;entryDx=0;entryDy=0;exitX=0.233;exitY=0.925;exitDx=0;exitDy=0;exitPerimeter=0;" edge="1" parent="1" source="BaXSai-w9nqZ_IfBJfG6-98" target="BaXSai-w9nqZ_IfBJfG6-1">
          <mxGeometry width="50" height="50" relative="1" as="geometry">
            <mxPoint x="750" y="115" as="sourcePoint" />
            <mxPoint x="760" y="139.99999999999994" as="targetPoint" />
          </mxGeometry>
        </mxCell>
        <mxCell id="BaXSai-w9nqZ_IfBJfG6-157" value="" style="endArrow=none;html=1;rounded=0;entryX=0.75;entryY=1;entryDx=0;entryDy=0;exitX=0.368;exitY=-0.001;exitDx=0;exitDy=0;exitPerimeter=0;" edge="1" parent="1" source="BaXSai-w9nqZ_IfBJfG6-29" target="BaXSai-w9nqZ_IfBJfG6-1">
          <mxGeometry width="50" height="50" relative="1" as="geometry">
            <mxPoint x="859.3200000000002" y="112.00000000000006" as="sourcePoint" />
            <mxPoint x="820" y="139.99999999999994" as="targetPoint" />
          </mxGeometry>
        </mxCell>
        <mxCell id="BaXSai-w9nqZ_IfBJfG6-158" value="" style="endArrow=none;html=1;rounded=0;entryX=0.427;entryY=1.002;entryDx=0;entryDy=0;exitX=0.574;exitY=0.015;exitDx=0;exitDy=0;exitPerimeter=0;entryPerimeter=0;" edge="1" parent="1" source="BaXSai-w9nqZ_IfBJfG6-28" target="BaXSai-w9nqZ_IfBJfG6-1">
          <mxGeometry width="50" height="50" relative="1" as="geometry">
            <mxPoint x="857.8400000000001" y="222.4699999999999" as="sourcePoint" />
            <mxPoint x="820" y="200" as="targetPoint" />
          </mxGeometry>
        </mxCell>
        <mxCell id="BaXSai-w9nqZ_IfBJfG6-159" value="" style="endArrow=none;html=1;rounded=0;entryX=1;entryY=0.5;entryDx=0;entryDy=0;" edge="1" parent="1" target="BaXSai-w9nqZ_IfBJfG6-1">
          <mxGeometry width="50" height="50" relative="1" as="geometry">
            <mxPoint x="920" y="170" as="sourcePoint" />
            <mxPoint x="781.2400000000002" y="200.1199999999999" as="targetPoint" />
          </mxGeometry>
        </mxCell>
        <mxCell id="BaXSai-w9nqZ_IfBJfG6-160" value="" style="endArrow=none;html=1;rounded=0;entryX=0.277;entryY=0.823;entryDx=0;entryDy=0;entryPerimeter=0;" edge="1" parent="1" source="BaXSai-w9nqZ_IfBJfG6-110" target="BaXSai-w9nqZ_IfBJfG6-7">
          <mxGeometry width="50" height="50" relative="1" as="geometry">
            <mxPoint x="220" y="240" as="sourcePoint" />
            <mxPoint x="270" y="190" as="targetPoint" />
          </mxGeometry>
        </mxCell>
        <mxCell id="BaXSai-w9nqZ_IfBJfG6-161" value="" style="endArrow=none;html=1;rounded=0;entryX=0.724;entryY=0.793;entryDx=0;entryDy=0;entryPerimeter=0;" edge="1" parent="1" source="BaXSai-w9nqZ_IfBJfG6-120" target="BaXSai-w9nqZ_IfBJfG6-7">
          <mxGeometry width="50" height="50" relative="1" as="geometry">
            <mxPoint x="222.72000000000003" y="222.94999999999993" as="sourcePoint" />
            <mxPoint x="262.1600000000001" y="195.83999999999992" as="targetPoint" />
          </mxGeometry>
        </mxCell>
        <mxCell id="BaXSai-w9nqZ_IfBJfG6-162" value="" style="endArrow=none;html=1;rounded=0;entryX=0.388;entryY=0.994;entryDx=0;entryDy=0;entryPerimeter=0;exitX=0.221;exitY=0.002;exitDx=0;exitDy=0;exitPerimeter=0;" edge="1" parent="1" source="BaXSai-w9nqZ_IfBJfG6-3" target="BaXSai-w9nqZ_IfBJfG6-107">
          <mxGeometry width="50" height="50" relative="1" as="geometry">
            <mxPoint x="40" y="140" as="sourcePoint" />
            <mxPoint x="90" y="90" as="targetPoint" />
          </mxGeometry>
        </mxCell>
        <mxCell id="BaXSai-w9nqZ_IfBJfG6-163" value="" style="endArrow=none;html=1;rounded=0;entryX=-0.033;entryY=0.958;entryDx=0;entryDy=0;entryPerimeter=0;exitX=0.75;exitY=0;exitDx=0;exitDy=0;" edge="1" parent="1" source="BaXSai-w9nqZ_IfBJfG6-3" target="BaXSai-w9nqZ_IfBJfG6-86">
          <mxGeometry width="50" height="50" relative="1" as="geometry">
            <mxPoint x="66.51999999999998" y="140.11999999999995" as="sourcePoint" />
            <mxPoint x="45.51999999999998" y="96.75999999999999" as="targetPoint" />
          </mxGeometry>
        </mxCell>
        <mxCell id="BaXSai-w9nqZ_IfBJfG6-164" value="" style="endArrow=none;html=1;rounded=0;entryX=1;entryY=0.5;entryDx=0;entryDy=0;exitX=0;exitY=0.25;exitDx=0;exitDy=0;" edge="1" parent="1" source="BaXSai-w9nqZ_IfBJfG6-3" target="BaXSai-w9nqZ_IfBJfG6-108">
          <mxGeometry width="50" height="50" relative="1" as="geometry">
            <mxPoint x="130" y="139.99999999999994" as="sourcePoint" />
            <mxPoint x="139.33999999999992" y="95.32" as="targetPoint" />
          </mxGeometry>
        </mxCell>
        <mxCell id="BaXSai-w9nqZ_IfBJfG6-165" value="" style="endArrow=none;html=1;rounded=0;entryX=0.971;entryY=0.61;entryDx=0;entryDy=0;entryPerimeter=0;exitX=-0.017;exitY=0.668;exitDx=0;exitDy=0;exitPerimeter=0;" edge="1" parent="1" source="BaXSai-w9nqZ_IfBJfG6-3" target="BaXSai-w9nqZ_IfBJfG6-109">
          <mxGeometry width="50" height="50" relative="1" as="geometry">
            <mxPoint x="40" y="155" as="sourcePoint" />
            <mxPoint x="-26.40000000000009" y="140.07999999999993" as="targetPoint" />
          </mxGeometry>
        </mxCell>
        <mxCell id="BaXSai-w9nqZ_IfBJfG6-166" value="" style="endArrow=none;html=1;rounded=0;entryX=1;entryY=0.5;entryDx=0;entryDy=0;entryPerimeter=0;" edge="1" parent="1" source="BaXSai-w9nqZ_IfBJfG6-8" target="BaXSai-w9nqZ_IfBJfG6-137">
          <mxGeometry width="50" height="50" relative="1" as="geometry">
            <mxPoint x="37.960000000000036" y="180.07999999999993" as="sourcePoint" />
            <mxPoint x="-31.160000000000082" y="224.39999999999998" as="targetPoint" />
          </mxGeometry>
        </mxCell>
        <mxCell id="BaXSai-w9nqZ_IfBJfG6-167" value="" style="endArrow=none;html=1;rounded=0;entryX=1;entryY=0.5;entryDx=0;entryDy=0;entryPerimeter=0;" edge="1" parent="1" target="BaXSai-w9nqZ_IfBJfG6-143">
          <mxGeometry width="50" height="50" relative="1" as="geometry">
            <mxPoint x="61.481481481481524" y="311.4814814814814" as="sourcePoint" />
            <mxPoint x="-30" y="315" as="targetPoint" />
          </mxGeometry>
        </mxCell>
        <mxCell id="BaXSai-w9nqZ_IfBJfG6-168" value="" style="endArrow=none;html=1;rounded=0;entryX=1;entryY=0.5;entryDx=0;entryDy=0;exitX=0;exitY=0.5;exitDx=0;exitDy=0;" edge="1" parent="1" source="BaXSai-w9nqZ_IfBJfG6-4" target="BaXSai-w9nqZ_IfBJfG6-123">
          <mxGeometry width="50" height="50" relative="1" as="geometry">
            <mxPoint x="71.48148148148152" y="321.4814814814814" as="sourcePoint" />
            <mxPoint x="-20" y="325" as="targetPoint" />
          </mxGeometry>
        </mxCell>
        <mxCell id="BaXSai-w9nqZ_IfBJfG6-169" value="" style="endArrow=none;html=1;rounded=0;exitX=0;exitY=1;exitDx=0;exitDy=0;" edge="1" parent="1" source="BaXSai-w9nqZ_IfBJfG6-4" target="BaXSai-w9nqZ_IfBJfG6-35">
          <mxGeometry width="50" height="50" relative="1" as="geometry">
            <mxPoint x="37" y="447.72" as="sourcePoint" />
            <mxPoint x="-29.99999999999295" y="455" as="targetPoint" />
          </mxGeometry>
        </mxCell>
        <mxCell id="BaXSai-w9nqZ_IfBJfG6-170" value="" style="endArrow=none;html=1;rounded=0;exitX=0.5;exitY=1;exitDx=0;exitDy=0;" edge="1" parent="1" source="BaXSai-w9nqZ_IfBJfG6-4" target="BaXSai-w9nqZ_IfBJfG6-36">
          <mxGeometry width="50" height="50" relative="1" as="geometry">
            <mxPoint x="40" y="450" as="sourcePoint" />
            <mxPoint x="-29.99999999999295" y="455" as="targetPoint" />
          </mxGeometry>
        </mxCell>
        <mxCell id="BaXSai-w9nqZ_IfBJfG6-171" value="" style="endArrow=none;html=1;rounded=0;entryX=0.177;entryY=0.035;entryDx=0;entryDy=0;exitX=1;exitY=1;exitDx=0;exitDy=0;entryPerimeter=0;" edge="1" parent="1" source="BaXSai-w9nqZ_IfBJfG6-4" target="BaXSai-w9nqZ_IfBJfG6-37">
          <mxGeometry width="50" height="50" relative="1" as="geometry">
            <mxPoint x="50" y="460" as="sourcePoint" />
            <mxPoint x="-19.99999999999295" y="465" as="targetPoint" />
          </mxGeometry>
        </mxCell>
        <mxCell id="BaXSai-w9nqZ_IfBJfG6-172" value="" style="endArrow=none;html=1;rounded=0;entryX=-0.052;entryY=0.61;entryDx=0;entryDy=0;exitX=0.998;exitY=0.565;exitDx=0;exitDy=0;entryPerimeter=0;exitPerimeter=0;" edge="1" parent="1" source="BaXSai-w9nqZ_IfBJfG6-4" target="BaXSai-w9nqZ_IfBJfG6-126">
          <mxGeometry width="50" height="50" relative="1" as="geometry">
            <mxPoint x="160" y="480" as="sourcePoint" />
            <mxPoint x="221.23999999999978" y="521.0500000000001" as="targetPoint" />
          </mxGeometry>
        </mxCell>
      </root>
    </mxGraphModel>
  </diagram>
</mxfile>
